<?xml version="1.0" standalone="no"?>
<!DOCTYPE svg PUBLIC "-//W3C//DTD SVG 20010904//EN"
 "http://www.w3.org/TR/2001/REC-SVG-20010904/DTD/svg10.dtd">
<svg version="1.0" xmlns="http://www.w3.org/2000/svg"
 width="600.000000pt" height="600.000000pt" viewBox="0 0 600.000000 600.000000"
 preserveAspectRatio="xMidYMid meet">
<metadata>
Created by potrace 1.11, written by Peter Selinger 2001-2013
</metadata>
<g transform="translate(0.000000,600.000000) scale(0.100000,-0.100000)"
fill="#000000" stroke="none">
<path d="M0 3000 l0 -3000 433 0 434 0 175 178 c97 97 250 252 340 343 370
378 1276 1297 2060 2090 289 294 600 609 690 700 89 92 372 379 628 639 256
259 612 621 792 803 l326 332 -531 3 -532 2 -313 -317 c-173 -175 -542 -549
-820 -832 -279 -282 -654 -663 -834 -845 -179 -182 -404 -411 -500 -508 -95
-97 -392 -398 -660 -670 -267 -271 -583 -592 -702 -712 l-215 -219 -3 49 c-2
27 -2 984 0 2127 l2 2077 2615 0 2615 0 0 380 0 380 -3000 0 -3000 0 0 -3000z"/>
<path d="M1758 759 c-2 -4 -142 -148 -311 -321 -170 -172 -336 -341 -369 -374
l-60 -62 2491 0 2491 0 -2 382 -3 381 -2117 1 c-1165 0 -2119 -3 -2120 -7z"/>
</g>
</svg>
