<?xml version="1.0" standalone="no"?>
<!DOCTYPE svg PUBLIC "-//W3C//DTD SVG 20010904//EN"
 "http://www.w3.org/TR/2001/REC-SVG-20010904/DTD/svg10.dtd">
<svg version="1.0" xmlns="http://www.w3.org/2000/svg"
 width="600.000000pt" height="600.000000pt" viewBox="0 0 600.000000 600.000000"
 preserveAspectRatio="xMidYMid meet">
<metadata>
Created by potrace 1.11, written by Peter Selinger 2001-2013
</metadata>
<g transform="translate(0.000000,600.000000) scale(0.100000,-0.100000)"
fill="#000000" stroke="none">
<path d="M0 3000 l0 -3000 433 0 433 0 146 148 c81 81 218 219 305 308 87 89
386 392 665 675 278 283 584 593 678 689 95 96 417 423 715 725 299 303 612
620 697 706 84 86 381 388 660 670 278 283 650 660 826 839 l320 325 -531 3
-532 2 -310 -314 c-170 -173 -515 -522 -765 -776 -250 -254 -542 -550 -648
-658 -106 -108 -329 -334 -495 -502 -525 -532 -1347 -1366 -1591 -1614 l-235
-240 -3 50 c-2 27 -2 984 0 2127 l2 2077 2615 0 2615 0 0 380 0 380 -3000 0
-3000 0 0 -3000z"/>
<path d="M1758 759 c-2 -6 -428 -441 -736 -754 -2 -2 1118 -3 2487 -3 l2491 0
-2 382 -3 381 -2117 1 c-1165 0 -2119 -3 -2120 -7z"/>
</g>
</svg>
